{"title":"Unknown.2011.TS..avi","uid":6222049,"size":449136960,"categoryP":"video","categoryS":"movies","magnet":"?xt=urn:btih:ab31c41ccb0a1ba2c263d4523dfdf054d5e96609&amp;dn=Unknown.2011.TS..avi&amp;tr=udp%3A%2F%2Ftracker.openbittorrent.com%3A80&amp;tr=udp%3A%2F%2Fopen.demonii.com%3A1337&amp;tr=udp%3A%2F%2Ftracker.coppersurfer.tk%3A6969&amp;tr=udp%3A%2F%2Fexodus.desync.com%3A6969","seeders":1,"leechers":0,"uploader":"cad40","files":1,"time":1299365432,"description":"Genre:Drama | Mystery | Thriller \nLanguage:English\n\nSubtitles:Romana/English\n\n\nFormat : AVI Format profile : Base Media\nCodec ID : isom\nFile size : 887 MiB\nDuration : 1h 47mn\nOverall bit rate : 1 150 Kbps\nMovie name : Unknown.2011.TS.x264.Feel-Free\n\n\nVideo\nFormat settings, CABAC : Yes\nFormat settings, ReFrames : 4 frames\nFormat settings, GOP : M=4, N=32\nCodec ID : avc1\nCodec ID/Info : Advanced Video Coding\nDuration : 1h 47mn\nBit rate mode : Variable\nBit rate : 989 Kbps\nWidth : 720 pixels\nHeight : 288 pixels\nDisplay aspect ratio : 2.500\nFrame rate mode : Constant\nFrame rate : 25.000 fps\nColor space : YUV\nChroma subsampling : 4:2:0\nBit depth : 8 bits\nScan type : Progressive\nBits/(Pixel*Frame) : 0.191\nStream size : 766 MiB (86%)\nWriting library : x264\n\nAudio\nID : 2\nFormat : AAC\nFormat/Info : Advanced Audio Codec\nFormat version : Version 4\nFormat profile : LC\nCodec ID : 40\nDuration : 1h 47mn\nBit rate mode : Variable\nBit rate : 151 Kbps\nChannel(s) : 2 channels\nChannel positions : Front: L R\nSampling rate : 48.0 KHz\nStream size : 116 MiB (13%)\n\n\n\n\n\nPlot:\nA man awakens from a coma, only to discover that someone has taken on his identity and that no one, (not even his wife), believes him. With the help of a young woman, he sets out to prove who he is\n\n\n\n","torrent":{"xt":"urn:btih:ab31c41ccb0a1ba2c263d4523dfdf054d5e96609","amp;dn":"Unknown.2011.TS..avi","amp;tr":["udp%3A%2F%2Ftracker.openbittorrent.com%3A80","udp%3A%2F%2Fopen.demonii.com%3A1337","udp%3A%2F%2Ftracker.coppersurfer.tk%3A6969","udp%3A%2F%2Fexodus.desync.com%3A6969"],"infoHash":"ab31c41ccb0a1ba2c263d4523dfdf054d5e96609","infoHashBuffer":{"type":"Buffer","data":[171,49,196,28,203,10,27,162,194,99,212,82,61,253,240,84,213,233,102,9]},"announce":[],"urlList":[]}}